<?xml version="1.0" standalone="no"?>
<!DOCTYPE svg PUBLIC "-//W3C//DTD SVG 20010904//EN"
 "http://www.w3.org/TR/2001/REC-SVG-20010904/DTD/svg10.dtd">
<svg version="1.0" xmlns="http://www.w3.org/2000/svg"
 width="1600.000000pt" height="1569.000000pt" viewBox="0 0 1600.000000 1569.000000"
 preserveAspectRatio="xMidYMid meet">
<metadata>
Created by potrace 1.16, written by Peter Selinger 2001-2019
</metadata>
<g transform="translate(0.000000,1569.000000) scale(0.100000,-0.100000)"
fill="#000000" stroke="none">
<path d="M6268 15336 c-9 -8 -19 -41 -22 -73 -4 -32 -11 -74 -16 -93 -5 -19
-16 -116 -24 -215 -8 -99 -22 -205 -30 -235 -8 -30 -17 -116 -20 -190 -5 -136
-12 -182 -41 -300 -10 -39 -19 -141 -24 -255 -9 -207 -27 -298 -66 -335 -48
-45 -42 -45 -1770 -22 -1618 21 -3830 34 -3874 22 -66 -17 -82 -77 -34 -121
35 -32 68 -45 129 -55 27 -4 74 -16 104 -26 30 -11 80 -26 110 -34 81 -22 205
-91 595 -332 138 -85 297 -185 355 -222 58 -37 121 -75 140 -85 19 -10 78 -46
130 -80 52 -34 151 -97 220 -140 69 -43 226 -142 350 -220 222 -139 283 -175
450 -263 113 -60 307 -176 444 -266 61 -41 163 -106 226 -145 63 -40 203 -131
310 -204 107 -73 233 -155 280 -183 47 -29 114 -69 150 -91 36 -22 94 -55 130
-73 36 -19 85 -48 110 -65 25 -18 79 -52 120 -77 335 -205 502 -261 682 -229
36 6 113 32 169 57 188 83 215 93 340 124 68 16 183 46 254 65 72 20 159 42
195 50 36 8 81 21 100 29 19 7 91 28 160 46 130 33 322 88 400 113 60 20 162
50 295 88 61 17 155 45 210 61 55 17 141 41 190 55 50 13 104 31 120 38 17 8
49 18 70 24 128 33 285 78 385 111 132 44 257 82 455 140 77 23 165 50 195 60
30 11 75 24 100 30 90 22 335 100 535 170 190 67 573 180 750 221 50 12 102
28 116 35 38 19 185 65 414 128 110 31 245 72 300 91 107 38 268 86 350 104
80 18 242 66 350 104 55 19 150 50 210 67 61 18 155 45 210 62 178 52 199 58
235 64 62 11 380 107 670 204 157 52 262 85 540 165 144 42 281 86 377 121 51
19 132 43 180 54 48 11 120 29 158 40 176 52 204 59 260 70 33 7 80 18 105 25
25 7 106 25 180 40 332 67 445 97 473 124 16 16 -24 32 -114 46 -52 8 -120 23
-151 34 -31 11 -106 24 -167 30 -60 6 -127 17 -148 25 -54 19 -288 62 -412 76
-56 6 -114 16 -128 21 -14 5 -77 18 -141 28 -65 11 -182 34 -262 51 -80 17
-185 37 -235 45 -49 7 -119 20 -155 28 -36 9 -99 18 -140 22 -41 3 -102 13
-135 21 -34 7 -108 21 -165 29 -58 8 -132 21 -165 29 -33 8 -87 18 -120 22
-33 4 -77 13 -97 20 -21 7 -75 18 -120 24 -46 6 -117 18 -158 25 -41 8 -115
19 -165 24 -49 6 -130 20 -180 30 -135 29 -311 60 -395 71 -41 5 -97 14 -125
20 -27 6 -97 19 -155 30 -58 11 -127 26 -154 35 -27 8 -90 20 -140 26 -50 6
-170 26 -266 45 -96 20 -224 42 -283 49 -60 8 -132 22 -160 30 -29 9 -98 22
-155 30 -57 8 -107 17 -112 20 -4 3 -75 12 -156 20 -82 8 -163 20 -181 26 -34
11 -199 39 -378 65 -60 8 -139 24 -175 34 -36 10 -101 22 -145 25 -44 4 -100
13 -125 20 -25 8 -90 19 -145 25 -55 6 -118 15 -140 21 -22 6 -87 17 -145 25
-58 8 -115 18 -127 24 -12 5 -59 14 -104 20 -46 6 -122 24 -169 40 -47 15
-112 31 -145 35 -33 4 -80 14 -105 21 -25 8 -64 14 -88 14 -59 0 -155 15 -357
55 -93 18 -209 36 -256 39 -47 3 -105 13 -128 21 -23 8 -81 19 -129 25 -48 7
-114 18 -147 25 -33 7 -107 18 -165 25 -58 6 -130 17 -160 25 -97 24 -175 29
-192 11z"/>
<path d="M15453 13413 c-53 -37 -230 -143 -239 -143 -2 0 -63 -33 -136 -74
-73 -40 -223 -118 -333 -174 -110 -55 -249 -131 -310 -167 -60 -36 -168 -98
-240 -136 -71 -39 -148 -80 -170 -93 -22 -12 -76 -43 -120 -68 -44 -25 -152
-87 -240 -137 -88 -50 -234 -130 -325 -176 -91 -47 -187 -100 -215 -117 -27
-17 -93 -54 -145 -81 -52 -27 -106 -58 -120 -67 -52 -36 -436 -246 -705 -385
-82 -43 -195 -104 -250 -135 -55 -32 -185 -101 -290 -155 -262 -134 -329 -171
-414 -228 -40 -27 -146 -85 -235 -129 -298 -149 -344 -196 -416 -428 -25 -81
-34 -134 -40 -230 -5 -78 -16 -148 -28 -185 -23 -69 -47 -166 -61 -245 -6 -30
-14 -73 -20 -95 -5 -22 -16 -76 -25 -120 -9 -44 -23 -100 -31 -125 -8 -25 -17
-67 -20 -95 -4 -27 -15 -81 -26 -120 -10 -38 -25 -101 -33 -140 -21 -99 -50
-215 -79 -320 -14 -49 -37 -144 -51 -210 -15 -66 -33 -142 -41 -170 -7 -27
-28 -113 -45 -190 -17 -77 -40 -179 -51 -227 -11 -48 -26 -122 -34 -164 -8
-42 -17 -79 -20 -83 -2 -5 -14 -52 -26 -107 -11 -54 -25 -107 -31 -117 -5 -10
-16 -52 -24 -95 -21 -113 -58 -273 -89 -387 -33 -123 -56 -219 -85 -350 -12
-55 -32 -136 -45 -180 -12 -44 -37 -145 -54 -225 -17 -80 -49 -210 -72 -290
-22 -80 -46 -179 -54 -220 -7 -41 -20 -104 -28 -140 -14 -57 -30 -139 -67
-328 -5 -30 -15 -62 -21 -73 -5 -11 -17 -59 -25 -107 -8 -48 -21 -109 -29
-137 -26 -96 -64 -250 -70 -285 -3 -19 -14 -69 -25 -110 -10 -41 -31 -133 -45
-205 -14 -71 -39 -179 -54 -240 -40 -154 -62 -242 -74 -300 -9 -43 -46 -188
-93 -360 -8 -27 -14 -59 -14 -72 0 -12 -11 -57 -24 -100 -13 -43 -45 -168 -71
-278 -26 -110 -54 -227 -62 -260 -8 -33 -22 -87 -30 -120 -8 -33 -25 -96 -39
-140 -13 -44 -24 -89 -24 -99 0 -11 -9 -49 -19 -85 -31 -105 -106 -407 -126
-511 -4 -19 -23 -91 -41 -160 -19 -69 -43 -172 -54 -230 -30 -160 -65 -317
-88 -395 -34 -118 -92 -378 -95 -420 -3 -64 26 -59 105 17 36 35 100 94 143
133 72 64 214 225 311 352 22 29 88 106 146 171 58 64 134 153 169 197 35 43
93 111 129 150 109 119 128 141 206 243 140 182 275 345 369 446 6 6 18 21 26
33 15 22 62 78 162 193 32 36 108 128 171 205 62 77 138 167 167 201 67 75
171 200 225 270 43 56 86 106 168 194 122 131 199 224 388 470 42 54 124 150
242 284 34 38 68 78 75 90 8 12 51 64 95 117 45 52 92 110 106 129 88 118 297
371 378 459 54 57 116 131 140 165 24 33 60 79 81 101 20 22 55 63 77 90 21
28 52 64 69 81 16 16 48 52 70 79 87 107 135 160 223 252 18 18 53 59 78 91
56 69 68 83 256 287 81 89 174 197 206 240 33 44 74 94 92 110 17 17 35 37 39
47 5 15 92 117 216 257 28 31 61 72 75 91 21 30 44 57 105 124 28 31 163 194
178 216 9 14 37 54 61 90 24 36 56 76 70 89 14 14 26 35 26 47 0 26 -64 87
-195 184 -293 217 -573 428 -662 498 -56 44 -130 100 -165 123 -110 74 -153
115 -181 173 -34 69 -43 131 -28 191 11 46 115 264 152 320 22 33 105 170 171
283 107 182 155 265 216 377 35 66 104 185 152 265 48 80 98 165 110 190 12
25 42 73 66 107 24 34 44 64 44 67 0 3 23 48 51 98 29 51 75 136 102 188 28
52 67 124 87 160 20 36 51 94 70 130 18 36 61 108 95 160 54 84 161 280 260
480 18 36 72 133 121 215 48 83 111 193 139 245 28 52 76 136 106 185 119 195
145 241 237 415 30 58 69 130 87 160 18 30 57 102 86 159 115 222 127 243 259
451 37 58 70 115 74 127 11 34 -20 26 -91 -24z"/>
<path d="M437 13083 c-19 -19 19 -249 53 -318 15 -32 54 -141 155 -435 51
-151 110 -320 130 -375 65 -178 116 -318 140 -390 13 -38 37 -106 54 -150 37
-98 131 -357 176 -485 53 -148 131 -358 161 -430 15 -36 48 -126 74 -200 26
-74 66 -187 88 -250 22 -63 64 -189 92 -280 28 -91 62 -194 76 -230 13 -36 24
-71 24 -77 0 -7 11 -37 25 -67 41 -89 87 -211 146 -390 22 -66 52 -147 66
-180 14 -34 46 -122 70 -196 24 -74 53 -153 63 -175 27 -58 159 -390 180 -455
10 -30 37 -107 60 -170 23 -63 59 -164 80 -225 21 -60 62 -175 90 -255 28 -80
60 -172 70 -205 10 -33 26 -82 36 -110 10 -27 30 -86 45 -130 14 -44 34 -102
44 -130 9 -27 25 -82 35 -121 10 -39 40 -124 65 -190 26 -65 71 -191 100 -279
88 -264 144 -424 187 -535 62 -162 64 -170 93 -255 46 -137 103 -297 135 -380
17 -44 44 -119 60 -167 52 -155 73 -180 143 -170 23 3 62 14 87 24 25 11 54
22 66 24 11 2 50 17 85 33 35 15 82 34 104 41 22 7 45 16 50 20 6 5 29 13 51
19 23 6 58 22 78 36 20 14 40 25 43 25 14 0 100 45 137 72 21 15 44 28 50 28
6 0 47 18 91 40 44 22 92 40 107 40 15 0 29 4 32 9 3 5 18 11 33 14 16 2 42
10 58 16 150 54 244 76 330 76 73 0 98 -4 130 -22 69 -37 152 -139 217 -268
39 -78 177 -324 212 -380 116 -181 150 -240 239 -410 54 -104 103 -195 109
-202 11 -13 78 -124 78 -128 0 -2 23 -42 50 -90 28 -48 50 -88 50 -90 0 -7
139 -235 188 -308 48 -71 114 -185 187 -322 20 -38 63 -110 95 -160 31 -49 86
-139 122 -200 36 -60 88 -146 115 -190 153 -246 222 -363 272 -462 42 -85 246
-429 336 -568 49 -75 107 -173 162 -275 25 -45 60 -103 163 -269 30 -49 90
-147 132 -218 99 -164 129 -204 148 -201 13 3 15 41 17 283 4 586 25 1684 33
1785 5 58 14 386 20 730 6 344 17 753 26 910 8 157 19 506 24 775 5 270 12
564 15 654 6 207 -9 386 -40 463 -41 101 -96 164 -235 271 -58 44 -134 109
-170 145 -36 35 -112 103 -170 151 -129 107 -236 206 -410 381 -138 138 -227
223 -385 365 -141 126 -236 216 -435 411 -102 100 -207 201 -235 225 -89 75
-504 460 -541 501 -23 26 -232 226 -353 338 -68 63 -142 133 -165 155 -66 64
-219 200 -245 217 -13 9 -71 63 -130 120 -58 57 -158 150 -221 207 -63 57
-162 149 -221 205 -97 94 -153 144 -334 301 -86 74 -159 143 -330 310 -127
124 -319 304 -335 315 -4 3 -54 48 -111 101 -57 53 -133 121 -169 150 -36 30
-157 144 -270 255 -113 111 -230 223 -260 250 -30 26 -134 126 -231 223 -96
97 -227 223 -290 280 -62 58 -159 150 -214 205 -163 164 -374 366 -465 446
-46 41 -170 161 -275 266 -104 106 -207 206 -227 223 -36 32 -78 47 -91 34z"/>
</g>
</svg>
